<?xml version="1.0" encoding="UTF-8" standalone="no"?>
<!DOCTYPE svg PUBLIC "-//W3C//DTD SVG 1.1//EN"
 "http://www.w3.org/Graphics/SVG/1.1/DTD/svg11.dtd">
<!-- Generated by graphviz version 11.0.0 (20240428.1522)
 -->
<!-- Title: f031k6 Pages: 1 -->
<svg width="923pt" height="295pt"
 viewBox="0.00 0.00 923.35 294.77" xmlns="http://www.w3.org/2000/svg" xmlns:xlink="http://www.w3.org/1999/xlink">
<g id="graph0" class="graph" transform="scale(1 1) rotate(0) translate(4 290.77)">
<title>f031k6</title>
<polygon fill="white" stroke="none" points="-4,4 -4,-290.77 919.35,-290.77 919.35,4 -4,4"/>
<g id="clust1" class="cluster">
<title>clusterLegend</title>
<polygon fill="none" stroke="black" points="8,-8 8,-278.77 544,-278.77 544,-8 8,-8"/>
<text text-anchor="middle" x="276" y="-261.47" font-family="Times,serif" font-size="14.00">Legend</text>
</g>
<!-- legendNode0 -->
<g id="node1" class="node">
<title>legendNode0</title>
<polygon fill="none" stroke="black" points="255.29,-210.32 258.14,-210.42 260.95,-210.57 263.72,-210.77 266.44,-211.01 269.1,-211.3 271.68,-211.64 274.18,-212.02 276.59,-212.45 278.89,-212.92 281.09,-213.43 283.17,-213.99 285.12,-214.58 286.94,-215.21 288.62,-215.88 290.17,-216.58 291.57,-217.31 292.82,-218.08 293.92,-218.87 294.87,-219.68 295.66,-220.52 296.31,-221.38 296.8,-222.26 297.15,-223.16 297.34,-224.07 297.4,-224.99 297.31,-225.92 297.08,-226.86 296.73,-227.8 296.24,-228.75 295.64,-229.69 294.92,-230.62 294.08,-231.56 293.14,-232.48 292.11,-233.39 290.98,-234.28 289.77,-235.16 288.48,-236.03 287.11,-236.87 285.68,-237.68 284.18,-238.47 282.63,-239.24 281.03,-239.97 279.39,-240.67 277.7,-241.34 275.98,-241.97 274.23,-242.56 272.46,-243.11 270.65,-243.63 268.83,-244.1 267,-244.53 265.14,-244.91 263.28,-245.25 261.4,-245.54 259.52,-245.78 257.63,-245.98 255.74,-246.13 253.85,-246.22 251.95,-246.27 250.05,-246.27 248.15,-246.22 246.26,-246.13 244.37,-245.98 242.48,-245.78 240.6,-245.54 238.72,-245.25 236.86,-244.91 235,-244.53 233.17,-244.1 231.35,-243.63 229.54,-243.11 227.77,-242.56 226.02,-241.97 224.3,-241.34 222.61,-240.67 220.97,-239.97 219.37,-239.24 217.82,-238.47 216.32,-237.68 214.89,-236.87 213.52,-236.03 212.23,-235.16 211.02,-234.28 209.89,-233.39 208.86,-232.48 207.92,-231.56 207.08,-230.62 206.36,-229.69 205.76,-228.75 205.27,-227.8 204.92,-226.86 204.69,-225.92 204.6,-224.99 204.66,-224.07 204.85,-223.16 205.2,-222.26 205.69,-221.38 206.34,-220.52 207.13,-219.68 208.08,-218.87 209.18,-218.08 210.43,-217.31 211.83,-216.58 213.38,-215.88 215.06,-215.21 216.88,-214.58 218.83,-213.99 220.91,-213.43 223.11,-212.92 225.41,-212.45 227.82,-212.02 230.32,-211.64 232.9,-211.3 235.56,-211.01 238.28,-210.77 241.05,-210.57 243.86,-210.42 246.71,-210.32 249.57,-210.27 252.43,-210.27 255.29,-210.32"/>
<text text-anchor="middle" x="251" y="-224" font-family="Times,serif" font-size="12.00">Executable</text>
</g>
<!-- legendNode1 -->
<g id="node2" class="node">
<title>legendNode1</title>
<polygon fill="none" stroke="black" points="126.42,-138.88 126.42,-153.79 93.96,-164.34 48.04,-164.34 15.58,-153.79 15.58,-138.88 48.04,-128.34 93.96,-128.34 126.42,-138.88"/>
<text text-anchor="middle" x="71" y="-142.06" font-family="Times,serif" font-size="12.00">Static Library</text>
</g>
<!-- legendNode0&#45;&gt;legendNode1 -->
<g id="edge1" class="edge">
<title>legendNode0&#45;&gt;legendNode1</title>
<path fill="none" stroke="black" d="M219.65,-213.35C190.2,-200.27 145.91,-180.61 113.34,-166.14"/>
<polygon fill="black" stroke="black" points="115.15,-163.11 104.59,-162.25 112.31,-169.51 115.15,-163.11"/>
</g>
<!-- legendNode2 -->
<g id="node3" class="node">
<title>legendNode2</title>
<polygon fill="none" stroke="black" points="268.07,-138.88 268.07,-153.79 232.88,-164.34 183.12,-164.34 147.93,-153.79 147.93,-138.88 183.12,-128.34 232.88,-128.34 268.07,-138.88"/>
<polygon fill="none" stroke="black" points="272.07,-135.91 272.07,-156.77 233.47,-168.34 182.53,-168.34 143.93,-156.77 143.93,-135.91 182.53,-124.34 233.47,-124.34 272.07,-135.91"/>
<text text-anchor="middle" x="208" y="-142.06" font-family="Times,serif" font-size="12.00">Shared Library</text>
</g>
<!-- legendNode0&#45;&gt;legendNode2 -->
<g id="edge2" class="edge">
<title>legendNode0&#45;&gt;legendNode2</title>
<path fill="none" stroke="black" d="M241.88,-210.32C236.91,-201.08 230.6,-189.36 224.78,-178.53"/>
<polygon fill="black" stroke="black" points="227.94,-177.02 220.12,-169.88 221.78,-180.34 227.94,-177.02"/>
</g>
<!-- legendNode3 -->
<g id="node4" class="node">
<title>legendNode3</title>
<polygon fill="none" stroke="black" points="423.65,-138.88 423.65,-153.79 386.95,-164.34 335.05,-164.34 298.35,-153.79 298.35,-138.88 335.05,-128.34 386.95,-128.34 423.65,-138.88"/>
<polygon fill="none" stroke="black" points="427.65,-135.87 427.65,-156.81 387.51,-168.34 334.49,-168.34 294.35,-156.81 294.35,-135.87 334.49,-124.34 387.51,-124.34 427.65,-135.87"/>
<polygon fill="none" stroke="black" points="431.65,-132.86 431.65,-159.82 388.08,-172.34 333.92,-172.34 290.35,-159.82 290.35,-132.86 333.92,-120.34 388.08,-120.34 431.65,-132.86"/>
<text text-anchor="middle" x="361" y="-142.06" font-family="Times,serif" font-size="12.00">Module Library</text>
</g>
<!-- legendNode0&#45;&gt;legendNode3 -->
<!-- legendNode7 -->
<g id="node8" class="node">
<title>legendNode7</title>
<polygon fill="none" stroke="black" points="535.88,-164.34 450.12,-164.34 450.12,-128.34 535.88,-128.34 535.88,-164.34"/>
<text text-anchor="middle" x="493" y="-142.06" font-family="Times,serif" font-size="12.00">Custom Target</text>
</g>
<!-- legendNode0&#45;&gt;legendNode7 -->
<!-- legendNode4 -->
<g id="node5" class="node">
<title>legendNode4</title>
<polygon fill="none" stroke="black" points="166.08,-39.56 91,-52 15.92,-39.56 44.6,-19.44 137.4,-19.44 166.08,-39.56"/>
<text text-anchor="middle" x="91" y="-29.73" font-family="Times,serif" font-size="12.00">Interface Library</text>
</g>
<!-- legendNode1&#45;&gt;legendNode4 -->
<g id="edge4" class="edge">
<title>legendNode1&#45;&gt;legendNode4</title>
<path fill="none" stroke="black" stroke-dasharray="5,2" d="M74.12,-128.1C77.28,-110.67 82.22,-83.45 85.94,-62.94"/>
<polygon fill="black" stroke="black" points="89.35,-63.71 87.69,-53.25 82.46,-62.46 89.35,-63.71"/>
<text text-anchor="middle" x="105" y="-87.1" font-family="Times,serif" font-size="14.00">Interface</text>
</g>
<!-- legendNode5 -->
<g id="node6" class="node">
<title>legendNode5</title>
<polygon fill="none" stroke="black" points="309.98,-34 278.49,-52 215.51,-52 184.02,-34 215.51,-16 278.49,-16 309.98,-34"/>
<text text-anchor="middle" x="247" y="-29.73" font-family="Times,serif" font-size="12.00">Object Library</text>
</g>
<!-- legendNode2&#45;&gt;legendNode5 -->
<g id="edge5" class="edge">
<title>legendNode2&#45;&gt;legendNode5</title>
<path fill="none" stroke="black" stroke-dasharray="1,5" d="M215.52,-124.06C221.67,-106.66 230.42,-81.91 237.13,-62.92"/>
<polygon fill="black" stroke="black" points="240.37,-64.25 240.41,-53.65 233.77,-61.91 240.37,-64.25"/>
<text text-anchor="middle" x="247.12" y="-87.1" font-family="Times,serif" font-size="14.00">Private</text>
</g>
<!-- legendNode6 -->
<g id="node7" class="node">
<title>legendNode6</title>
<polygon fill="none" stroke="black" points="472.18,-29.99 457.89,-45.22 400,-52 342.11,-45.22 327.82,-29.99 367.88,-17.78 432.12,-17.78 472.18,-29.99"/>
<text text-anchor="middle" x="400" y="-29.73" font-family="Times,serif" font-size="12.00">Unknown Library</text>
</g>
<!-- legendNode3&#45;&gt;legendNode6 -->
<g id="edge6" class="edge">
<title>legendNode3&#45;&gt;legendNode6</title>
<path fill="none" stroke="black" d="M369.95,-120.02C376.04,-102.8 384.09,-80.02 390.32,-62.38"/>
<polygon fill="black" stroke="black" points="393.58,-63.66 393.62,-53.06 386.98,-61.32 393.58,-63.66"/>
</g>
<!-- node0 -->
<g id="node9" class="node">
<title>node0</title>
<polygon fill="none" stroke="black" points="848.69,-43.86 739,-65.9 629.31,-43.86 671.21,-8.19 806.79,-8.19 848.69,-43.86"/>
<text text-anchor="middle" x="739" y="-36.85" font-family="Times,serif" font-size="12.00">cmsis_v5</text>
<text text-anchor="middle" x="739" y="-22.6" font-family="Times,serif" font-size="12.00">(cmsis_v5::framework)</text>
</g>
<!-- node1 -->
<g id="node10" class="node">
<title>node1</title>
<polygon fill="none" stroke="black" points="700.36,-138.88 700.36,-153.79 659.73,-164.34 602.27,-164.34 561.64,-153.79 561.64,-138.88 602.27,-128.34 659.73,-128.34 700.36,-138.88"/>
<text text-anchor="middle" x="631" y="-142.06" font-family="Times,serif" font-size="12.00">cmsis_v5_generic</text>
</g>
<!-- node1&#45;&gt;node0 -->
<g id="edge8" class="edge">
<title>node1&#45;&gt;node0</title>
<path fill="none" stroke="black" d="M647.88,-128.1C663.24,-112.4 686.38,-88.76 705.49,-69.23"/>
<polygon fill="black" stroke="black" points="707.85,-71.82 712.35,-62.23 702.85,-66.93 707.85,-71.82"/>
</g>
<!-- node2 -->
<g id="node11" class="node">
<title>node2</title>
<polygon fill="none" stroke="black" points="820.12,-210.32 822.18,-210.42 824.23,-210.57 826.24,-210.77 828.21,-211.01 830.14,-211.3 832.02,-211.64 833.84,-212.02 835.59,-212.45 837.26,-212.92 838.85,-213.43 840.36,-213.99 841.78,-214.58 843.1,-215.21 844.33,-215.88 845.45,-216.58 846.46,-217.31 847.37,-218.08 848.17,-218.87 848.86,-219.68 849.44,-220.52 849.91,-221.38 850.26,-222.26 850.51,-223.16 850.66,-224.07 850.7,-224.99 850.63,-225.92 850.47,-226.86 850.21,-227.8 849.86,-228.75 849.42,-229.69 848.89,-230.62 848.29,-231.56 847.61,-232.48 846.86,-233.39 846.04,-234.28 845.16,-235.16 844.22,-236.03 843.23,-236.87 842.18,-237.68 841.1,-238.47 839.97,-239.24 838.81,-239.97 837.62,-240.67 836.39,-241.34 835.15,-241.97 833.87,-242.56 832.58,-243.11 831.27,-243.63 829.95,-244.1 828.62,-244.53 827.27,-244.91 825.92,-245.25 824.56,-245.54 823.19,-245.78 821.82,-245.98 820.44,-246.13 819.07,-246.22 817.69,-246.27 816.31,-246.27 814.93,-246.22 813.56,-246.13 812.18,-245.98 810.81,-245.78 809.44,-245.54 808.08,-245.25 806.73,-244.91 805.38,-244.53 804.05,-244.1 802.73,-243.63 801.42,-243.11 800.13,-242.56 798.85,-241.97 797.61,-241.34 796.38,-240.67 795.19,-239.97 794.03,-239.24 792.9,-238.47 791.82,-237.68 790.77,-236.87 789.78,-236.03 788.84,-235.16 787.96,-234.28 787.14,-233.39 786.39,-232.48 785.71,-231.56 785.11,-230.62 784.58,-229.69 784.14,-228.75 783.79,-227.8 783.53,-226.86 783.37,-225.92 783.3,-224.99 783.34,-224.07 783.49,-223.16 783.74,-222.26 784.09,-221.38 784.56,-220.52 785.14,-219.68 785.83,-218.87 786.63,-218.08 787.54,-217.31 788.55,-216.58 789.67,-215.88 790.9,-215.21 792.22,-214.58 793.64,-213.99 795.15,-213.43 796.74,-212.92 798.41,-212.45 800.16,-212.02 801.98,-211.64 803.86,-211.3 805.79,-211.01 807.76,-210.77 809.77,-210.57 811.82,-210.42 813.88,-210.32 815.96,-210.27 818.04,-210.27 820.12,-210.32"/>
<text text-anchor="middle" x="817" y="-224" font-family="Times,serif" font-size="12.00">f031k6</text>
</g>
<!-- node2&#45;&gt;node2 -->
<g id="edge9" class="edge">
<title>node2&#45;&gt;node2</title>
<path fill="none" stroke="black" d="M845.97,-234.95C858.24,-235.46 868.7,-233.23 868.7,-228.27 868.7,-225.75 865.99,-223.94 861.72,-222.83"/>
<polygon fill="black" stroke="black" points="862.15,-219.36 851.82,-221.7 861.36,-226.31 862.15,-219.36"/>
</g>
<!-- node3 -->
<g id="node12" class="node">
<title>node3</title>
<polygon fill="none" stroke="black" points="915.35,-134.77 915.35,-157.91 857.74,-174.27 776.26,-174.27 718.65,-157.91 718.65,-134.77 776.26,-118.4 857.74,-118.4 915.35,-134.77"/>
<text text-anchor="middle" x="817" y="-149.19" font-family="Times,serif" font-size="12.00">k_devices</text>
<text text-anchor="middle" x="817" y="-134.94" font-family="Times,serif" font-size="12.00">(k_devices::framework)</text>
</g>
<!-- node2&#45;&gt;node3 -->
<g id="edge11" class="edge">
<title>node2&#45;&gt;node3</title>
<path fill="none" stroke="black" stroke-dasharray="1,5" d="M817,-209.93C817,-202.86 817,-194.38 817,-185.98"/>
<polygon fill="black" stroke="black" points="820.5,-186.22 817,-176.22 813.5,-186.22 820.5,-186.22"/>
</g>
<!-- node3&#45;&gt;node0 -->
<g id="edge10" class="edge">
<title>node3&#45;&gt;node0</title>
<path fill="none" stroke="black" d="M797.72,-118.06C787.78,-104.01 775.53,-86.67 764.79,-71.48"/>
<polygon fill="black" stroke="black" points="767.83,-69.72 759.2,-63.58 762.12,-73.77 767.83,-69.72"/>
</g>
</g>
</svg>
